<svg width="15" height="16" viewBox="0 0 15 16" fill="none" xmlns="http://www.w3.org/2000/svg">
<g id="calendar-star" clip-path="url(#clip0_1823_56154)">
<path id="Vector" d="M6.875 13.625H3.75C3.41848 13.625 3.10054 13.4933 2.86612 13.2589C2.6317 13.0245 2.5 12.7065 2.5 12.375V4.875C2.5 4.54348 2.6317 4.22554 2.86612 3.99112C3.10054 3.7567 3.41848 3.625 3.75 3.625H11.25C11.5815 3.625 11.8995 3.7567 12.1339 3.99112C12.3683 4.22554 12.5 4.54348 12.5 4.875V7.0625" stroke="#2D3791" stroke-linecap="round" stroke-linejoin="round"/>
<path id="Vector_2" d="M10 2.375V4.875" stroke="#2D3791" stroke-linecap="round" stroke-linejoin="round"/>
<path id="Vector_3" d="M5 2.375V4.875" stroke="#2D3791" stroke-linecap="round" stroke-linejoin="round"/>
<path id="Vector_4" d="M2.5 7.375H9.375" stroke="#2D3791" stroke-linecap="round" stroke-linejoin="round"/>
<path id="Vector_5" d="M11.125 13.5104L9.76753 14.2217C9.72724 14.2426 9.68192 14.252 9.63663 14.2487C9.59133 14.2454 9.54784 14.2296 9.51102 14.203C9.4742 14.1764 9.44549 14.1401 9.42809 14.0982C9.4107 14.0562 9.40531 14.0103 9.41253 13.9654L9.6719 12.4586L8.57378 11.3917C8.541 11.36 8.51779 11.3197 8.5068 11.2755C8.49581 11.2312 8.49749 11.1848 8.51163 11.1415C8.52577 11.0981 8.55181 11.0596 8.58678 11.0304C8.62176 11.0011 8.66424 10.9823 8.7094 10.9761L10.2269 10.7561L10.9057 9.38543C10.926 9.3446 10.9572 9.31026 10.996 9.28624C11.0347 9.26223 11.0794 9.24951 11.125 9.24951C11.1706 9.24951 11.2153 9.26223 11.2541 9.28624C11.2928 9.31026 11.3241 9.3446 11.3444 9.38543L12.0232 10.7561L13.5407 10.9761C13.5857 10.9825 13.628 11.0015 13.6628 11.0308C13.6976 11.06 13.7236 11.0985 13.7377 11.1417C13.7518 11.1849 13.7535 11.2313 13.7427 11.2755C13.7318 11.3196 13.7088 11.3599 13.6763 11.3917L12.5782 12.4586L12.8369 13.9648C12.8447 14.0097 12.8397 14.0559 12.8225 14.0981C12.8053 14.1404 12.7767 14.1769 12.7398 14.2037C12.7029 14.2304 12.6592 14.2463 12.6137 14.2495C12.5683 14.2527 12.5228 14.243 12.4825 14.2217L11.125 13.5104Z" stroke="#2D3791" stroke-linecap="round" stroke-linejoin="round"/>
</g>
<defs>
<clipPath id="clip0_1823_56154">
<rect width="15" height="15" fill="white" transform="translate(0 0.5)"/>
</clipPath>
</defs>
</svg>
